# xmcd CD database file
# Generated: Fri Mar 7 19:30:36 2003 by KSCD
# 
# Track frame offsets:
#       182
#       18270
#       32012
#       44175
#       61772
#       78292
#       90592
#       104145
#       116200
#       130525
#
# Disc length: 1957 seconds
#
# Revision: 1
# Processed by: cddbd v1.4PL0 Copyright (c) Steve Scherf et al.
# Submitted via: Kscd 1.3.3
#
DISCID=7f07a30a
DTITLE=Clint Black - No Time To Kill
DYEAR=1900
DGENRE=
TTITLE0=No Time To Kill
TTITLE1=Thinkin' Again
TTITLE2=A Good Run Of Bad Luck
TTITLE3=State Of Mind
TTITLE4=A Bad Goodbye
TTITLE5=Back To Back
TTITLE6=Half The Man
TTITLE7=I'll Take Texas
TTITLE8=Happiness Alone
TTITLE9=Tuckered Out
EXTD=
EXTT0=
EXTT1=
EXTT2=
EXTT3=
EXTT4=
EXTT5=
EXTT6=
EXTT7=
EXTT8=
EXTT9=
PLAYORDER=
